<svg xmlns="http://www.w3.org/2000/svg" viewBox="0 0 67.37 57.05"><defs><style>.cls-1{fill:#efefef;}.cls-2{fill:#fff;}.cls-3{fill:#4d4d4d;}.cls-4{fill:#ccc;}.cls-5{fill:#f44c81;}.cls-6{fill:#f79;}.cls-7{fill:#aaa;}.cls-8{fill:#e0e0e0;}</style></defs><title>Shopping</title><g id="Layer_2" data-name="Layer 2"><g id="Layer_1-2" data-name="Layer 1"><path class="cls-1" d="M67.05,43.32C65.5,50.11,58.31,55.59,51.5,56.78s-13.18-1.89-20.59-3S15.1,53.56,8.69,49.4-2.16,36,1.1,30.6,15.28,23.46,24,17.23,39.33.22,45,0,55.53,10.1,60,19.3,68.58,36.55,67.05,43.32Z"/><path class="cls-2" d="M20.39,43.9a4.46,4.46,0,0,1-4.45-4.46V13.34a4.41,4.41,0,0,1,4.41-4.41H60.48a4.42,4.42,0,0,1,4.41,4.41v26.1a4.46,4.46,0,0,1-4.46,4.46Z"/><path class="cls-3" d="M60.48,9.18a4.16,4.16,0,0,1,4.16,4.16v26.1a4.2,4.2,0,0,1-4.21,4.21h-40a4.2,4.2,0,0,1-4.2-4.21V13.34a4.16,4.16,0,0,1,4.16-4.16H60.48m0-.5H20.35a4.66,4.66,0,0,0-4.66,4.66v26.1a4.71,4.71,0,0,0,4.7,4.71h40a4.71,4.71,0,0,0,4.71-4.71V13.34a4.66,4.66,0,0,0-4.66-4.66Z"/><path class="cls-4" d="M21.25,34.7a.23.23,0,0,1-.18-.08.26.26,0,0,1-.07-.19l1.61-15.49a.26.26,0,0,1,.25-.23H25.3a.26.26,0,0,1,.25.25v1.52a.22.22,0,0,0,.22.22.22.22,0,0,0,.22-.22V19a.25.25,0,0,1,.25-.25h5.87a.26.26,0,0,1,.25.25v1.52a.22.22,0,0,0,.22.22.22.22,0,0,0,.22-.22V19a.25.25,0,0,1,.25-.25h2.43a.25.25,0,0,1,.25.23l.49,5a.26.26,0,0,1-.06.19.27.27,0,0,1-.19.08H30.5L29.4,34.48a.25.25,0,0,1-.25.22Z"/><path class="cls-3" d="M35.48,19,36,24h-5.7L29.15,34.45h-7.9L22.86,19H25.3v1.52a.47.47,0,0,0,.94,0V19h5.87v1.52a.47.47,0,1,0,.94,0V19h2.43m0-.5H33.05a.5.5,0,0,0-.47.34.51.51,0,0,0-.47-.34H26.24a.5.5,0,0,0-.47.34.51.51,0,0,0-.47-.34H22.86a.51.51,0,0,0-.5.45L20.76,34.4a.51.51,0,0,0,.12.39.52.52,0,0,0,.37.16h7.9a.5.5,0,0,0,.5-.45l1.07-10H36a.47.47,0,0,0,.37-.16.48.48,0,0,0,.13-.38l-.49-5a.5.5,0,0,0-.5-.46Z"/><path class="cls-2" d="M29.15,34.7a.27.27,0,0,1-.19-.08.3.3,0,0,1-.06-.2L30,24a.25.25,0,0,1,.25-.23h8.78a.25.25,0,0,1,.24.23l1.12,10.47a.25.25,0,0,1-.06.2.26.26,0,0,1-.19.08Z"/><path class="cls-3" d="M39.05,24l1.11,10.48h-11L30.27,24h8.78m0-.5H30.27a.51.51,0,0,0-.5.45L28.65,34.4a.51.51,0,0,0,.5.55h11a.5.5,0,0,0,.38-.17.47.47,0,0,0,.12-.38L39.54,23.92a.5.5,0,0,0-.49-.45Z"/><path class="cls-5" d="M32.59,21.09a.61.61,0,0,1-.62-.61V17.36a2.79,2.79,0,0,0-5.58,0v3.12a.62.62,0,0,1-1.23,0V17.36a4,4,0,1,1,8,0v3.12A.61.61,0,0,1,32.59,21.09Z"/><path class="cls-3" d="M29.19,13.59A3.77,3.77,0,0,1,33,17.36v3.12a.36.36,0,0,1-.36.36.37.37,0,0,1-.37-.36V17.36a3,3,0,0,0-6.08,0v3.12a.37.37,0,0,1-.73,0V17.36a3.77,3.77,0,0,1,3.77-3.77h0m0-.5h0a4.28,4.28,0,0,0-4.27,4.27v3.12a.87.87,0,0,0,1.73,0V17.36a2.54,2.54,0,0,1,5.08,0v3.12a.87.87,0,0,0,1.73,0V17.36a4.25,4.25,0,0,0-1.26-3,4.19,4.19,0,0,0-3-1.25Z"/><path class="cls-6" d="M34.66,30.57A2.65,2.65,0,0,1,32,27.92v-2a.62.62,0,1,1,1.23,0v2a1.42,1.42,0,1,0,2.83,0v-2a.62.62,0,0,1,.62-.62.61.61,0,0,1,.62.62v2A2.65,2.65,0,0,1,34.66,30.57Z"/><path class="cls-3" d="M36.7,25.52a.36.36,0,0,1,.25.11.36.36,0,0,1,.11.26v2a2.4,2.4,0,0,1-4.8,0v-2a.37.37,0,1,1,.73,0v2a1.67,1.67,0,1,0,3.33,0v-2a.38.38,0,0,1,.37-.37h0m0-.5h0a.87.87,0,0,0-.85.87v2a1.17,1.17,0,1,1-2.33,0v-2a.87.87,0,1,0-1.73,0v2a2.9,2.9,0,0,0,5.8,0v-2A.87.87,0,0,0,36.7,25Z"/><polygon class="cls-7" points="22.86 18.96 21.25 34.45 22.12 34.45 23.73 18.96 22.86 18.96"/><polygon class="cls-8" points="30.27 23.98 29.15 34.45 30.01 34.45 31.13 23.98 30.27 23.98"/><path class="cls-3" d="M49.84,20.31h10.8a.59.59,0,0,0,0-1.17H49.84a.59.59,0,0,0,0,1.17Z"/><path class="cls-3" d="M45.65,20.31h1.52c.21,0,.39-.26.39-.59s-.18-.58-.39-.58H45.65c-.22,0-.4.26-.4.58S45.43,20.31,45.65,20.31Z"/><path class="cls-3" d="M45.65,24.47h6.58c.22,0,.39-.26.39-.59s-.17-.58-.39-.58H45.65c-.22,0-.4.26-.4.58S45.43,24.47,45.65,24.47Z"/><path class="cls-3" d="M60.7,23.3H54.8c-.22,0-.39.26-.39.58s.17.59.39.59h5.9c.21,0,.39-.26.39-.59S60.91,23.3,60.7,23.3Z"/><path class="cls-3" d="M60.7,27.73h-15c-.24,0-.44.26-.44.59a.53.53,0,0,0,.44.58h15c.25,0,.44-.26.44-.58S61,27.73,60.7,27.73Z"/><path class="cls-8" d="M18.19,39.44V13.34a4.16,4.16,0,0,1,4.16-4.16h-2a4.16,4.16,0,0,0-4.16,4.16v26.1a4.2,4.2,0,0,0,4.2,4.21h2A4.2,4.2,0,0,1,18.19,39.44Z"/><path class="cls-4" d="M24.88,54a.25.25,0,0,1-.25-.25V52.38A3.37,3.37,0,0,1,28,49h2.44l1.22-5.11H20.39a4.46,4.46,0,0,1-4.45-4.46V39a.25.25,0,0,1,.25-.25H64.64a.25.25,0,0,1,.25.25v.49a4.46,4.46,0,0,1-4.46,4.46H49.16L50.38,49h2.44a3.37,3.37,0,0,1,3.37,3.37v1.33a.25.25,0,0,1-.25.25Z"/><path class="cls-3" d="M64.64,39v.49a4.21,4.21,0,0,1-4.21,4.21H48.85l.43,1.81.9,3.8h2.64a3.11,3.11,0,0,1,3.12,3.12v1.33H24.88V52.38A3.12,3.12,0,0,1,28,49.26h2.64L32,43.65H20.39a4.2,4.2,0,0,1-4.2-4.21V39H64.64m0-.5H16.19a.5.5,0,0,0-.5.5v.49a4.71,4.71,0,0,0,4.7,4.71h11l-1.1,4.61H28a3.63,3.63,0,0,0-3.62,3.62v1.33a.5.5,0,0,0,.5.5H55.94a.5.5,0,0,0,.5-.5V52.38a3.62,3.62,0,0,0-3.62-3.62H50.58l-.82-3.41-.28-1.2h11a4.71,4.71,0,0,0,4.71-4.71V39a.5.5,0,0,0-.5-.5Z"/><polygon class="cls-7" points="33.98 43.65 31.98 43.65 30.64 49.26 32.64 49.26 33.98 43.65"/><path class="cls-7" d="M18.19,39.44V39h-2v.49a4.2,4.2,0,0,0,4.2,4.21h2A4.2,4.2,0,0,1,18.19,39.44Z"/><path class="cls-7" d="M30,49.26H28a3.12,3.12,0,0,0-3.12,3.12v1.33h2V52.38A3.12,3.12,0,0,1,30,49.26Z"/></g></g></svg>